<?xml version="1.0" encoding="utf-8"?>
<!-- Generator: Adobe Illustrator 16.0.0, SVG Export Plug-In . SVG Version: 6.00 Build 0)  -->
<!DOCTYPE svg PUBLIC "-//W3C//DTD SVG 1.1//EN" "http://www.w3.org/Graphics/SVG/1.1/DTD/svg11.dtd">
<svg version="1.1" id="Layer_1" xmlns="http://www.w3.org/2000/svg" xmlns:xlink="http://www.w3.org/1999/xlink" x="0px" y="0px"
	 width="1400px" height="980px" viewBox="0 0 1400 980" enable-background="new 0 0 1400 980" xml:space="preserve">
<g>
	<g>
		<g>
			<rect fill="#FFFFFF" width="1399.993" height="980"/>
		</g>
	</g>
	<g>
		<g>
			<path d="M285.251,465.482c-14.271,0-25.884-11.612-25.884-25.884c0-14.271,11.613-25.884,25.884-25.884
				c14.274,0,25.887,11.613,25.887,25.884C311.138,453.87,299.525,465.482,285.251,465.482z M285.251,416.239
				c-12.88,0-23.358,10.478-23.358,23.358c0,12.881,10.478,23.359,23.358,23.359s23.361-10.478,23.361-23.359
				C308.612,426.717,298.131,416.239,285.251,416.239z"/>
		</g>
		<g>
			<path d="M218.34,434.697H96.273c-0.698,0-1.263-0.565-1.263-1.263c0-0.698,0.564-1.263,1.263-1.263H218.34
				c0.698,0,1.263,0.565,1.263,1.263C219.603,434.132,219.038,434.697,218.34,434.697z"/>
		</g>
		<g>
			<path d="M183.524,448.652H108.52c-0.698,0-1.263-0.564-1.263-1.263s0.564-1.263,1.263-1.263h75.004
				c0.698,0,1.263,0.564,1.263,1.263S184.222,448.652,183.524,448.652z"/>
		</g>
		<g>
			<path d="M284.684,488.961c-20.063,0-37.85-11.884-45.558-30.349h-4.684l-10.949,10.942c-3.231,3.241-8.892,3.241-12.131,0
				l-10.063-10.066l-7.106,7.106c-3.236,3.241-8.887,3.241-12.13,0l-7.753-7.752l-4.978,4.978c-2.925,2.925-8.036,2.925-10.961,0
				l-5.207-5.207l-26.587,0.064l-4.807,6.307c-2.289,2.812-4.748,4.218-7.333,4.218c-4.374,0-7.296-4.082-7.419-4.255
				l-11.859-22.404c-0.094-0.18-0.146-0.385-0.146-0.59v-8.52c0-0.355,0.15-0.693,0.412-0.932l12.718-11.588
				c0.232-0.212,0.538-0.33,0.851-0.33h130.14c7.703-18.465,25.49-30.347,45.553-30.347c27.219,0,49.361,22.143,49.361,49.361
				S311.902,488.961,284.684,488.961z M233.919,456.087h6.055c0.518,0,0.982,0.316,1.174,0.797
				c7.138,17.952,24.227,29.552,43.535,29.552c25.825,0,46.835-21.01,46.835-46.838c0-25.825-21.01-46.835-46.835-46.835
				c-19.309,0-36.397,11.598-43.53,29.55c-0.192,0.481-0.656,0.796-1.174,0.796h-130.5l-11.943,10.883v7.649l11.627,21.987l0,0
				c0.015,0,2.272,3.048,5.271,3.048c1.788,0,3.589-1.095,5.35-3.256l5.158-6.768c0.237-0.313,0.607-0.496,0.999-0.499l27.744-0.066
				c0.333,0,0.654,0.133,0.891,0.37l5.58,5.577c1.971,1.974,5.419,1.974,7.39,0l5.577-5.577c0.237-0.237,0.557-0.37,0.893-0.37
				h0.587c0.335,0,0.656,0.133,0.893,0.37l8.352,8.352c2.287,2.287,6.275,2.287,8.559,0l7.999-7.999
				c0.237-0.237,0.558-0.37,0.893-0.37l0,0c0.335,0,0.656,0.133,0.893,0.37l10.957,10.959c2.286,2.289,6.277,2.289,8.559,0
				l11.319-11.312C233.263,456.22,233.583,456.087,233.919,456.087z"/>
		</g>
	</g>
	<g>
		<path fill="#009ED3" d="M699.998,151.412c-128.406,0-240.115,71.481-297.513,176.82h185.712v18.554v153.281v18.57H362.625
			c14.541,173.592,160.022,309.952,337.373,309.952c186.997,0,338.588-151.592,338.588-338.589S886.995,151.412,699.998,151.412z"/>
		<path d="M699.998,829.852c-85.764,0-167.659-32.039-230.597-90.216c-62.582-57.844-100.947-136.291-108.034-220.893
			c-0.03-0.353,0.088-0.7,0.328-0.962c0.239-0.259,0.577-0.407,0.93-0.407h224.309v-187.88H402.485
			c-0.446,0-0.858-0.234-1.085-0.619c-0.229-0.382-0.237-0.856-0.022-1.248c59.649-109.472,174.072-177.479,298.62-177.479
			c187.394,0,339.852,152.458,339.852,339.852C1039.85,677.395,887.392,829.852,699.998,829.852z M364.002,519.9
			c15.162,172.503,162.481,307.425,335.996,307.425c186,0,337.325-151.322,337.325-337.325S885.998,152.674,699.998,152.674
			c-122.913,0-235.892,66.729-295.379,174.294h183.578c0.696,0,1.263,0.565,1.263,1.263v190.405c0,0.698-0.567,1.264-1.263,1.264
			H364.002z"/>
	</g>
	<g>
		<path fill="#FF7861" d="M588.197,500.066V346.785v-18.554H402.485c-26.19,48.064-41.076,103.177-41.076,161.769
			c0,9.646,0.424,19.195,1.216,28.637h225.572V500.066z"/>
		<path d="M588.197,519.9H362.625c-0.656,0-1.204-0.504-1.258-1.157c-0.812-9.667-1.221-19.338-1.221-28.743
			c0-56.724,14.257-112.871,41.231-162.373c0.22-0.407,0.646-0.659,1.107-0.659h185.712c0.696,0,1.263,0.565,1.263,1.263v190.405
			C589.46,519.335,588.893,519.9,588.197,519.9z M363.79,517.374h223.145v-187.88H403.238
			C376.695,378.466,362.672,433.949,362.672,490C362.672,498.959,363.047,508.164,363.79,517.374z"/>
	</g>
	<g>
		<rect x="706.177" y="301.567" fill="#0088B5" width="21.27" height="21.267"/>
	</g>
	<g>
		<rect x="741.516" y="301.567" fill="#0088B5" width="21.271" height="21.267"/>
	</g>
	<g>
		<rect x="670.838" y="301.567" fill="#0088B5" width="21.27" height="21.267"/>
	</g>
	<g>
		<rect x="774.064" y="301.567" fill="#0088B5" width="21.271" height="21.267"/>
	</g>
	<g>
		<rect x="803.821" y="301.567" fill="#0088B5" width="21.27" height="21.267"/>
	</g>
	<g>
		<rect x="741.516" y="269.667" fill="#0088B5" width="21.271" height="21.267"/>
	</g>
	<g>
		<rect x="774.064" y="269.667" fill="#0088B5" width="21.271" height="21.267"/>
	</g>
	<g>
		<rect x="803.821" y="269.667" fill="#0088B5" width="21.27" height="21.267"/>
	</g>
	<g>
		<rect x="741.516" y="687.177" fill="#0088B5" width="21.271" height="21.267"/>
	</g>
	<g>
		<rect x="774.064" y="687.177" fill="#0088B5" width="21.271" height="21.267"/>
	</g>
	<g>
		<rect x="741.516" y="720.012" fill="#0088B5" width="21.271" height="21.267"/>
	</g>
	<g>
		<rect x="774.064" y="720.012" fill="#0088B5" width="21.271" height="21.267"/>
	</g>
	<g>
		<rect x="803.821" y="687.177" fill="#0088B5" width="21.27" height="21.267"/>
	</g>
	<g>
		<rect x="679.214" y="687.177" fill="#0088B5" width="21.27" height="21.267"/>
	</g>
	<g>
		<rect x="711.761" y="687.177" fill="#0088B5" width="21.272" height="21.267"/>
	</g>
	<g>
		<rect x="836.371" y="301.567" fill="#0088B5" width="21.269" height="21.267"/>
	</g>
	<g>
		<rect x="868.917" y="301.567" fill="#0088B5" width="21.27" height="21.267"/>
	</g>
	<g>
		<rect x="901.467" y="301.567" fill="#0088B5" width="21.269" height="21.267"/>
	</g>
	<g>
		<rect x="706.177" y="333.147" fill="#0088B5" width="21.27" height="21.271"/>
	</g>
	<g>
		<rect x="738.724" y="333.147" fill="#0088B5" width="21.271" height="21.271"/>
	</g>
	<g>
		<rect x="771.272" y="333.147" fill="#0088B5" width="21.271" height="21.271"/>
	</g>
	<g>
		<rect x="803.821" y="333.147" fill="#0088B5" width="21.27" height="21.271"/>
	</g>
	<g>
		<rect x="836.371" y="333.147" fill="#0088B5" width="21.269" height="21.271"/>
	</g>
	<g>
		<rect x="868.917" y="333.147" fill="#0088B5" width="21.27" height="21.271"/>
	</g>
	<g>
		<rect x="901.467" y="333.147" fill="#0088B5" width="21.269" height="21.271"/>
	</g>
	<g>
		<rect x="706.177" y="364.734" fill="#0088B5" width="21.27" height="21.265"/>
	</g>
	<g>
		<rect x="738.724" y="364.734" fill="#0088B5" width="21.271" height="21.265"/>
	</g>
	<g>
		<rect x="771.272" y="364.734" fill="#0088B5" width="21.271" height="21.265"/>
	</g>
	<g>
		<rect x="803.821" y="364.734" fill="#0088B5" width="21.27" height="21.265"/>
	</g>
	<g>
		<rect x="836.371" y="364.734" fill="#0088B5" width="21.269" height="21.265"/>
	</g>
	<g>
		<rect x="868.917" y="364.734" fill="#0088B5" width="21.27" height="21.265"/>
	</g>
	<g>
		<rect x="901.467" y="364.734" fill="#0088B5" width="21.269" height="21.265"/>
	</g>
	<g>
		<path fill="none" d="M794.458,417.448c-2.812-0.582-5.688-0.883-8.484-1.028c-0.75-0.032-1.529-0.124-2.265-0.124
			c-24.318,0-29.836,20.885-29.883,21.097c-0.939,2.223-1.295,4.509-1.211,6.818h117.039l-0.175-0.252L794.458,417.448z"/>
	</g>
	<g>
		<path fill="#58595B" d="M606.204,536.668h165.291l-5.525-3.429l-24.453-15.165H606.204v-18.008h-0.002v141.042
			c0,12.786,10.372,23.156,23.166,23.156h316.569c12.797,0,23.166-10.37,23.166-23.156v-69.304H606.204V536.668z"/>
		<path d="M945.937,665.527H629.367c-13.47,0-24.429-10.954-24.429-24.419V500.066c0-0.698,0.565-1.263,1.263-1.263
			c0.698,0,1.263,0.564,1.263,1.263h0.002v15.969v0.776h134.049c0.236,0,0.466,0.067,0.666,0.19l29.794,18.479
			c0.485,0.175,0.831,0.642,0.831,1.187c0,0.708-0.642,1.342-1.287,1.263c-0.008,0-0.016,0-0.025,0H607.466v32.61h361.636
			c0.698,0,1.263,0.565,1.263,1.264v69.304C970.365,654.573,959.406,665.527,945.937,665.527z M607.466,573.067l-0.002,68.041
			c0,12.071,9.824,21.894,21.903,21.894h316.569c12.079,0,21.903-9.822,21.903-21.894v-68.041H607.466z M607.466,535.405h159.598
			l-25.906-16.067H607.466V535.405z"/>
	</g>
	<g>
		<path d="M624.542,484.199H623.6c-0.698,0-1.263-0.565-1.263-1.263v-0.355c0-0.415,0.205-0.802,0.545-1.039
			s0.775-0.289,1.165-0.143l0.942,0.355c0.57,0.214,0.905,0.806,0.797,1.408C625.675,483.762,625.152,484.199,624.542,484.199z"/>
	</g>
	<g>
		<path fill="#58595B" d="M818.231,536.668h150.871v-18.594H814.457C816.953,524.836,817.975,531.209,818.231,536.668z"/>
		<path d="M969.103,537.931H818.231c-0.676,0-1.229-0.53-1.263-1.204c-0.291-6.235-1.537-12.364-3.697-18.215
			c-0.144-0.388-0.087-0.819,0.15-1.16c0.234-0.338,0.621-0.54,1.035-0.54h154.646c0.698,0,1.263,0.565,1.263,1.263v18.594
			C970.365,537.366,969.801,537.931,969.103,537.931z M819.425,535.405H967.84v-16.067H816.241
			C817.994,524.535,819.063,529.924,819.425,535.405z"/>
	</g>
	<g>
		<path fill="#FFFFFF" d="M814.457,518.074h154.646v-35.139H785.445C801.72,494.025,810.22,506.601,814.457,518.074z"/>
		<path d="M969.103,519.338H814.457c-0.53,0-1.001-0.331-1.186-0.826c-4.941-13.379-14.541-24.997-28.536-34.533
			c-0.459-0.311-0.661-0.885-0.496-1.416c0.163-0.531,0.651-0.891,1.206-0.891h183.657c0.698,0,1.263,0.565,1.263,1.263v35.139
			C970.365,518.772,969.801,519.338,969.103,519.338z M815.331,516.812H967.84v-32.613H789.404
			C801.818,493.387,810.525,504.341,815.331,516.812z"/>
	</g>
	<g>
		<path fill="#FFFFFF" d="M695.437,503.418c-21.094,0-41.3-8.023-42.151-8.371l-26.541-11.282l-2.203-0.829H623.6v17.131h-17.396
			v18.008h135.312l-27.712-17.189C708.399,502.567,702.228,503.418,695.437,503.418z"/>
		<path d="M741.567,519.338c-0.018,0-0.032,0-0.052,0H606.204c-0.696,0-1.263-0.565-1.263-1.264v-18.008
			c0-0.698,0.567-1.263,1.263-1.263h16.134v-15.868c0-0.698,0.565-1.263,1.263-1.263h0.942c0.15,0,0.303,0.027,0.444,0.082
			l2.203,0.829l26.59,11.302c0.185,0.076,20.512,8.271,41.658,8.271c6.66,0,12.713-0.834,17.992-2.477
			c0.348-0.108,0.729-0.062,1.041,0.134l27.529,17.076c0.483,0.175,0.831,0.641,0.831,1.186
			C742.83,518.772,742.266,519.338,741.567,519.338z M607.466,516.812h129.62l-23.463-14.553
			c-5.387,1.608-11.501,2.422-18.186,2.422c-21.637,0-42.423-8.381-42.63-8.465l-27.944-11.81v15.661
			c0,0.698-0.565,1.263-1.263,1.263h-16.134V516.812z"/>
	</g>
	<g>
		<path fill="#FFFFFF" d="M816.465,554.176l-0.222,0.671l-0.543,0.454c-1.347,1.119-2.797,1.775-4.291,2.197l-0.055,0.348
			l-1.983,0.144c-0.005,0-0.005,0-0.01,0c-0.007,0-0.01,0-0.015,0l-0.611,0.047l-2.514,0.165l0.086-0.503
			c-2.876-0.681-4.975-2.307-5.683-2.973l-22.723-14.079l-4.435-2.755l-1.974-1.224H606.204v35.137h362.899v-35.137H818.231
			C818.72,546.953,816.524,553.99,816.465,554.176z"/>
		<path d="M969.103,573.067H606.204c-0.696,0-1.263-0.565-1.263-1.263v-35.137c0-0.698,0.567-1.263,1.263-1.263h165.291
			c0.237,0,0.467,0.066,0.666,0.189l29.131,18.058c0.071,0.045,0.141,0.097,0.202,0.153c0.21,0.2,2.146,1.964,5.105,2.664
			c0.267,0.062,0.493,0.204,0.661,0.397l3.219-0.225c0.155-0.168,0.358-0.296,0.585-0.36c1.529-0.432,2.745-1.051,3.828-1.951
			l0.267-0.225l0.108-0.325c0.02-0.064,2.186-6.924,1.702-17.055c-0.016-0.345,0.11-0.681,0.35-0.93
			c0.237-0.251,0.567-0.392,0.913-0.392h150.871c0.698,0,1.263,0.564,1.263,1.263v35.137
			C970.365,572.502,969.801,573.067,969.103,573.067z M607.466,570.541H967.84v-32.61H819.544
			c0.266,9.942-1.855,16.568-1.878,16.638l-0.222,0.673c-0.074,0.225-0.21,0.425-0.392,0.575l-0.546,0.453
			c-1.176,0.982-2.516,1.717-4.077,2.235c-0.207,0.34-0.569,0.569-0.986,0.602l-5.141,0.355c-0.382,0.039-0.76-0.129-1.021-0.415
			c-0.104-0.115-0.182-0.246-0.236-0.39c-2.775-0.875-4.637-2.422-5.188-2.923l-28.723-17.804H607.466V570.541z"/>
	</g>
	<g>
		<polygon fill="#FFFFFF" points="588.197,346.785 588.197,500.066 606.201,500.066 606.204,500.066 623.6,500.066 623.6,482.936 
			623.6,482.581 623.6,445.02 623.6,362.795 623.6,346.785 		"/>
		<path d="M623.6,501.329h-35.403c-0.698,0-1.263-0.564-1.263-1.263V346.785c0-0.698,0.564-1.263,1.263-1.263H623.6
			c0.698,0,1.263,0.565,1.263,1.263v153.281C624.863,500.765,624.298,501.329,623.6,501.329z M589.46,498.804h32.877V348.048H589.46
			V498.804z"/>
	</g>
	<g>
		<path fill="#58595B" d="M945.937,444.21h-42.4h-33.882H752.615c0.577,15.929,22.505,32.426,22.762,32.61
			c3.655,1.971,6.995,4.021,10.068,6.115h183.657v-15.566C969.103,454.58,958.733,444.21,945.937,444.21z"/>
		<path d="M969.103,484.199H785.445c-0.254,0-0.501-0.077-0.71-0.22c-3.177-2.163-6.527-4.198-9.958-6.045
			c-0.367-0.254-22.818-16.978-23.425-33.676c-0.013-0.343,0.115-0.676,0.354-0.923c0.237-0.247,0.565-0.387,0.908-0.387h193.321
			c13.47,0,24.429,10.957,24.429,24.422v15.566C970.365,483.634,969.801,484.199,969.103,484.199z M785.833,481.673H967.84v-14.304
			c0-12.074-9.824-21.896-21.903-21.896H753.975c1.664,14.854,21.935,30.174,22.147,30.329
			C779.373,477.539,782.683,479.542,785.833,481.673z"/>
	</g>
	<g>
		<path fill="#FFEB95" d="M902.125,414.325l-2.223-9.094c-0.323-0.785-8.019-18.968-24.87-28.198
			c-0.519-0.296-1.017-0.575-1.429-0.792l-48.972-28.647l-35.881-21c-0.326-0.22-8.125-5.434-21.601-5.434
			c-6.04,0-12.303,1.051-18.743,3.165l-92.413,34.957l-32.394,3.515v82.224v37.561l0.942,0.355l2.203,0.829l26.541,11.282
			c0.851,0.348,21.057,8.371,42.151,8.371c6.791,0,12.962-0.851,18.367-2.533l27.712,17.189l24.453,15.165l8.259-15.165l1.85-3.401
			l4.877,3.401l21.93,15.276c0,0,1.273,1.056,2.685,3.317c2.288,3.66,4.952,10.522,3.167,21.368l0.611-0.047
			c0.005,0,0.008,0,0.015,0c0.005,0,0.005,0,0.01,0l1.983-0.144l0.055-0.348c1.494-0.422,2.944-1.078,4.291-2.197l0.543-0.454
			l0.222-0.671c0.06-0.186,2.255-7.223,1.767-17.508c-0.257-5.459-1.278-11.832-3.774-18.594
			c-4.237-11.474-12.737-24.049-29.012-35.139c-3.073-2.094-6.413-4.144-10.068-6.115c-0.257-0.185-22.185-16.681-22.762-32.61
			c-0.084-2.309,0.271-4.595,1.211-6.818c0.047-0.212,5.564-21.097,29.883-21.097c0.735,0,1.515,0.091,2.265,0.124
			c2.797,0.146,5.673,0.446,8.484,1.028l75.021,26.511l0.175,0.252h33.882C904.562,429.063,902.184,414.633,902.125,414.325z"/>
		<path d="M808.735,559.299c-0.351,0-0.691-0.148-0.931-0.409c-0.261-0.286-0.377-0.676-0.315-1.059
			c1.694-10.278-0.693-16.817-2.992-20.495c-1.268-2.029-2.412-3.007-2.422-3.017l-25.563-17.804l-9.433,17.328
			c-0.165,0.303-0.449,0.527-0.784,0.616c-0.338,0.089-0.695,0.037-0.989-0.147l-51.683-32.054
			c-5.387,1.608-11.501,2.422-18.186,2.422c-21.637,0-42.423-8.381-42.63-8.465l-29.653-12.454
			c-0.491-0.185-0.816-0.656-0.816-1.182V362.795c0-0.644,0.486-1.186,1.127-1.255l32.233-3.498l92.26-34.9
			c6.581-2.161,13.019-3.246,19.192-3.246c13.801,0,21.968,5.419,22.309,5.651l84.783,49.603c0.373,0.197,0.889,0.483,1.416,0.787
			c17.252,9.447,25.085,28.025,25.411,28.81l2.281,9.277c0.042,0.202,2.486,14.891,1.443,30.272
			c-0.045,0.661-0.595,1.177-1.258,1.177h-33.882c-0.379,0-0.734-0.17-0.974-0.457l-74.645-26.377
			c-2.32-0.469-5.034-0.797-8.127-0.959c-0.296-0.012-0.609-0.035-0.923-0.057c-0.429-0.032-0.86-0.064-1.277-0.064
			c-23.274,0-28.605,19.933-28.657,20.135c-0.88,2.126-1.255,4.24-1.174,6.473c0.553,15.248,22.026,31.476,22.244,31.636
			c3.361,1.798,6.788,3.877,10.034,6.09c14.439,9.837,24.359,21.863,29.485,35.745c2.249,6.093,3.547,12.477,3.853,18.971
			c0.506,10.678-1.806,17.888-1.828,17.96l-0.222,0.673c-0.074,0.225-0.21,0.425-0.392,0.575l-0.546,0.453
			c-1.176,0.982-2.516,1.717-4.077,2.235c-0.207,0.34-0.569,0.569-0.986,0.602l-2.609,0.189
			C808.799,559.299,808.77,559.299,808.735,559.299z M776.077,513.41c0.254,0,0.509,0.079,0.721,0.228l26.81,18.677
			c0.14,0.113,1.531,1.277,3.033,3.685c2.405,3.849,4.906,10.501,3.574,20.663l0.264-0.02c0.155-0.168,0.358-0.296,0.585-0.36
			c1.529-0.432,2.745-1.051,3.828-1.951l0.267-0.222l0.108-0.328c0.02-0.064,2.186-6.922,1.702-17.055
			c-0.291-6.235-1.537-12.364-3.697-18.215c-4.941-13.379-14.541-24.997-28.536-34.533c-3.177-2.163-6.527-4.198-9.958-6.045
			c-0.367-0.254-22.818-16.978-23.425-33.676c-0.094-2.603,0.348-5.077,1.31-7.355c-0.018-0.01,5.65-21.869,31.047-21.869
			c0.476,0,0.97,0.034,1.46,0.071c0.289,0.02,0.577,0.042,0.858,0.052c3.236,0.17,6.073,0.513,8.686,1.056l75.188,26.555
			c0.121,0.044,0.231,0.104,0.336,0.18h32.109c0.819-14.538-1.44-28.26-1.465-28.393l-2.205-9.023
			c-0.252-0.57-7.753-18.354-24.252-27.392c-0.522-0.301-1.009-0.572-1.41-0.782l-84.9-49.675
			c-0.385-0.256-7.928-5.261-20.964-5.261c-5.904,0-12.078,1.043-18.352,3.101l-92.356,34.939c-0.101,0.037-0.205,0.062-0.311,0.074
			l-31.269,3.392v117.78l2.326,0.875l26.59,11.302c0.185,0.076,20.512,8.271,41.658,8.271c6.66,0,12.713-0.834,17.992-2.477
			c0.348-0.108,0.729-0.062,1.041,0.134l51.031,31.648l9.467-17.392c0.17-0.316,0.468-0.543,0.818-0.624
			C775.883,513.423,775.979,513.41,776.077,513.41z"/>
	</g>
	<g>
		<path fill="#DBCA80" d="M805.568,536.668c-1.411-2.262-2.685-3.317-2.685-3.317l-21.93-15.276l-4.877-3.401l-1.85,3.401
			l-8.259,15.165l5.525,3.429l1.974,1.224l4.435,2.755l22.723,14.079c0.708,0.666,2.807,2.292,5.683,2.973l-0.086,0.503l2.514-0.165
			C810.521,547.19,807.856,540.328,805.568,536.668z"/>
		<path d="M806.222,559.464c-0.357,0-0.698-0.15-0.94-0.417c-0.104-0.115-0.182-0.246-0.236-0.39
			c-2.775-0.875-4.635-2.422-5.188-2.92l-34.554-21.425c-0.567-0.353-0.763-1.088-0.442-1.678l10.106-18.565
			c0.17-0.316,0.468-0.543,0.818-0.624c0.351-0.077,0.718-0.013,1.012,0.192l26.81,18.677c0.14,0.113,1.531,1.277,3.033,3.685
			c2.528,4.043,5.163,11.187,3.343,22.241c-0.097,0.58-0.577,1.017-1.165,1.056l-2.516,0.166
			C806.275,559.464,806.249,559.464,806.222,559.464z M767.651,532.795l33.64,20.857c0.071,0.045,0.141,0.097,0.202,0.153
			c0.21,0.2,2.146,1.964,5.105,2.664c0.267,0.062,0.493,0.204,0.661,0.397l0.383-0.025c1.384-9.708-0.92-15.948-3.146-19.506
			c-1.268-2.029-2.412-3.007-2.422-3.017l-25.563-17.804L767.651,532.795z"/>
	</g>
	<g>
		<rect x="490.511" y="547.402" fill="#0088B5" width="21.271" height="21.267"/>
	</g>
	<g>
		<rect x="525.351" y="547.402" fill="#0088B5" width="21.272" height="21.267"/>
	</g>
	<g>
		<rect x="560.192" y="547.402" fill="#0088B5" width="21.271" height="21.267"/>
	</g>
	<g>
		<rect x="490.511" y="280.301" fill="#0088B5" width="21.271" height="21.267"/>
	</g>
	<g>
		<rect x="525.351" y="280.301" fill="#0088B5" width="21.272" height="21.267"/>
	</g>
	<g>
		<rect x="455.672" y="280.301" fill="#0088B5" width="21.272" height="21.267"/>
	</g>
	<g>
		<rect x="560.192" y="280.301" fill="#0088B5" width="21.271" height="21.267"/>
	</g>
	<g>
		<rect x="560.192" y="582.166" fill="#0088B5" width="21.271" height="21.268"/>
	</g>
	<g>
		<path d="M441.381,541.951h-76.178c-0.698,0-1.263-0.564-1.263-1.263s0.565-1.263,1.263-1.263h76.178
			c0.698,0,1.263,0.564,1.263,1.263S442.079,541.951,441.381,541.951z"/>
	</g>
	<g>
		<path d="M418.018,563.973h-48.757c-0.698,0-1.263-0.564-1.263-1.263s0.565-1.263,1.263-1.263h48.757
			c0.698,0,1.263,0.564,1.263,1.263S418.716,563.973,418.018,563.973z"/>
	</g>
	<g>
		<path d="M1031.088,420.122H929.489c-0.698,0-1.263-0.565-1.263-1.263c0-0.698,0.564-1.263,1.263-1.263h101.599
			c0.698,0,1.263,0.565,1.263,1.263C1032.351,419.557,1031.786,420.122,1031.088,420.122z"/>
	</g>
	<g>
		<path d="M1024.68,394.95h-55.577c-0.698,0-1.263-0.565-1.263-1.263c0-0.698,0.564-1.263,1.263-1.263h55.577
			c0.698,0,1.263,0.565,1.263,1.263C1025.942,394.385,1025.378,394.95,1024.68,394.95z"/>
	</g>
	<g>
		<path d="M642.813,665.527H530.415c-0.698,0-1.263-0.564-1.263-1.263s0.564-1.263,1.263-1.263h112.397
			c0.698,0,1.263,0.564,1.263,1.263S643.511,665.527,642.813,665.527z"/>
	</g>
	<g>
		<path d="M505.789,665.527h-30.985c-0.698,0-1.263-0.564-1.263-1.263s0.565-1.263,1.263-1.263h30.985
			c0.698,0,1.263,0.564,1.263,1.263S506.487,665.527,505.789,665.527z"/>
	</g>
	<g>
		<path d="M887.813,731.908h-66.938c-0.697,0-1.263-0.564-1.263-1.263s0.565-1.263,1.263-1.263h66.938
			c0.698,0,1.263,0.564,1.263,1.263S888.512,731.908,887.813,731.908z"/>
	</g>
	<g>
		<path d="M549.358,640.349H445.801c-0.698,0-1.263-0.565-1.263-1.263c0-0.698,0.565-1.264,1.263-1.264h103.557
			c0.698,0,1.263,0.565,1.263,1.264C550.621,639.783,550.057,640.349,549.358,640.349z"/>
	</g>
	<g>
		<g>
			<path fill="#0088B5" d="M640.908,328.086c-0.326,0-0.646-0.124-0.893-0.37l-29.247-29.247c-0.493-0.493-0.493-1.292,0-1.786
				s1.292-0.493,1.786,0l29.247,29.247c0.493,0.493,0.493,1.292,0,1.786C641.555,327.962,641.229,328.086,640.908,328.086z"/>
		</g>
		<g>
			<path fill="#0088B5" d="M611.662,328.086c-0.323,0-0.646-0.124-0.893-0.37c-0.493-0.493-0.493-1.292,0-1.786l29.247-29.247
				c0.493-0.493,1.292-0.493,1.786,0s0.493,1.292,0,1.786l-29.247,29.247C612.308,327.962,611.985,328.086,611.662,328.086z"/>
		</g>
	</g>
	<g>
		<g>
			<path fill="#0088B5" d="M561.248,731.908c-0.326,0-0.646-0.123-0.893-0.37l-29.246-29.246c-0.494-0.493-0.494-1.293,0-1.786
				c0.493-0.493,1.292-0.493,1.786,0l29.246,29.246c0.494,0.494,0.494,1.293,0,1.786
				C561.894,731.785,561.568,731.908,561.248,731.908z"/>
		</g>
		<g>
			<path fill="#0088B5" d="M532.001,731.908c-0.323,0-0.646-0.123-0.893-0.37c-0.494-0.493-0.494-1.292,0-1.786l29.246-29.246
				c0.493-0.493,1.292-0.493,1.786,0c0.494,0.493,0.494,1.293,0,1.786l-29.246,29.246
				C532.647,731.785,532.324,731.908,532.001,731.908z"/>
		</g>
	</g>
	<g>
		<path fill="#0088B5" d="M611.662,731.908c-8.759,0-15.888-7.126-15.888-15.885c0-8.762,7.129-15.888,15.888-15.888
			s15.887,7.126,15.887,15.888C627.549,724.782,620.421,731.908,611.662,731.908z M611.662,702.662
			c-7.368,0-13.362,5.993-13.362,13.361c0,7.365,5.994,13.359,13.362,13.359s13.361-5.994,13.361-13.359
			C625.023,708.655,619.03,702.662,611.662,702.662z"/>
	</g>
	<g>
		<path fill="#0088B5" d="M626.286,270.93c-8.761,0-15.887-7.126-15.887-15.885c0-8.762,7.126-15.888,15.887-15.888
			c8.759,0,15.885,7.126,15.885,15.888C642.171,263.804,635.045,270.93,626.286,270.93z M626.286,241.684
			c-7.367,0-13.361,5.994-13.361,13.362c0,7.365,5.994,13.359,13.361,13.359c7.365,0,13.359-5.994,13.359-13.359
			C639.646,247.677,633.651,241.684,626.286,241.684z"/>
	</g>
	<g>
		<path d="M521.56,256.306h-65.888c-0.698,0-1.263-0.565-1.263-1.263c0-0.698,0.565-1.263,1.263-1.263h65.888
			c0.698,0,1.263,0.565,1.263,1.263C522.823,255.741,522.258,256.306,521.56,256.306z"/>
	</g>
	<g>
		<path d="M570.828,256.306h-28.331c-0.698,0-1.263-0.565-1.263-1.263c0-0.698,0.565-1.263,1.263-1.263h28.331
			c0.698,0,1.263,0.565,1.263,1.263C572.09,255.741,571.525,256.306,570.828,256.306z"/>
	</g>
	<g>
		<path d="M939.232,252.009h-28.331c-0.698,0-1.264-0.565-1.264-1.263c0-0.698,0.565-1.263,1.264-1.263h28.331
			c0.698,0,1.263,0.565,1.263,1.263C940.495,251.444,939.931,252.009,939.232,252.009z"/>
	</g>
	<g>
		<path d="M891.603,252.009H857.64c-0.697,0-1.263-0.565-1.263-1.263c0-0.698,0.565-1.263,1.263-1.263h33.963
			c0.698,0,1.263,0.565,1.263,1.263C892.865,251.444,892.301,252.009,891.603,252.009z"/>
	</g>
	<g>
		<path d="M877.839,699.073h-33.96c-0.698,0-1.263-0.565-1.263-1.264c0-0.697,0.564-1.263,1.263-1.263h33.96
			c0.698,0,1.263,0.565,1.263,1.263C879.102,698.508,878.537,699.073,877.839,699.073z"/>
	</g>
	<g>
		<g>
			<path d="M316.826,333.224H126.62c-0.698,0-1.263-0.565-1.263-1.263V188.6c0-0.698,0.565-1.263,1.263-1.263h190.206
				c0.698,0,1.263,0.565,1.263,1.263v143.361C318.089,332.659,317.524,333.224,316.826,333.224z M127.883,330.698h187.68V189.863
				h-187.68V330.698z"/>
		</g>
		<g>
			<path d="M175.954,235.636h-24.183c-0.698,0-1.263-0.565-1.263-1.263v-24.18c0-0.698,0.565-1.263,1.263-1.263h24.183
				c0.698,0,1.263,0.565,1.263,1.263v24.18C177.217,235.071,176.652,235.636,175.954,235.636z M153.035,233.11h21.656v-21.654
				h-21.656V233.11z"/>
		</g>
		<g>
			<path d="M214.529,235.636h-24.182c-0.698,0-1.263-0.565-1.263-1.263v-24.18c0-0.698,0.565-1.263,1.263-1.263h24.182
				c0.696,0,1.263,0.565,1.263,1.263v24.18C215.792,235.071,215.225,235.636,214.529,235.636z M191.609,233.11h21.657v-21.654
				h-21.657V233.11z"/>
		</g>
		<g>
			<path d="M253.099,235.636h-24.18c-0.695,0-1.263-0.565-1.263-1.263v-24.18c0-0.698,0.567-1.263,1.263-1.263h24.18
				c0.698,0,1.263,0.565,1.263,1.263v24.18C254.362,235.071,253.797,235.636,253.099,235.636z M230.182,233.11h21.654v-21.654
				h-21.654V233.11z"/>
		</g>
		<g>
			<path d="M291.674,235.636h-24.182c-0.698,0-1.263-0.565-1.263-1.263v-24.18c0-0.698,0.565-1.263,1.263-1.263h24.182
				c0.696,0,1.263,0.565,1.263,1.263v24.18C292.937,235.071,292.37,235.636,291.674,235.636z M268.754,233.11h21.657v-21.654
				h-21.657V233.11z"/>
		</g>
		<g>
			<path d="M175.954,273.631h-24.183c-0.698,0-1.263-0.565-1.263-1.263v-24.18c0-0.698,0.565-1.263,1.263-1.263h24.183
				c0.698,0,1.263,0.565,1.263,1.263v24.18C177.217,273.066,176.652,273.631,175.954,273.631z M153.035,271.105h21.656v-21.654
				h-21.656V271.105z"/>
		</g>
		<g>
			<path d="M214.529,273.631h-24.182c-0.698,0-1.263-0.565-1.263-1.263v-24.18c0-0.698,0.565-1.263,1.263-1.263h24.182
				c0.696,0,1.263,0.565,1.263,1.263v24.18C215.792,273.066,215.225,273.631,214.529,273.631z M191.609,271.105h21.657v-21.654
				h-21.657V271.105z"/>
		</g>
		<g>
			<path d="M253.099,273.631h-24.18c-0.695,0-1.263-0.565-1.263-1.263v-24.18c0-0.698,0.567-1.263,1.263-1.263h24.18
				c0.698,0,1.263,0.565,1.263,1.263v24.18C254.362,273.066,253.797,273.631,253.099,273.631z M230.182,271.105h21.654v-21.654
				h-21.654V271.105z"/>
		</g>
		<g>
			<path d="M291.674,273.631h-24.182c-0.698,0-1.263-0.565-1.263-1.263v-24.18c0-0.698,0.565-1.263,1.263-1.263h24.182
				c0.696,0,1.263,0.565,1.263,1.263v24.18C292.937,273.066,292.37,273.631,291.674,273.631z M268.754,271.105h21.657v-21.654
				h-21.657V271.105z"/>
		</g>
		<g>
			<path d="M175.954,311.631h-24.183c-0.698,0-1.263-0.565-1.263-1.263v-24.182c0-0.698,0.565-1.263,1.263-1.263h24.183
				c0.698,0,1.263,0.565,1.263,1.263v24.182C177.217,311.066,176.652,311.631,175.954,311.631z M153.035,309.105h21.656v-21.657
				h-21.656V309.105z"/>
		</g>
		<g>
			<path d="M214.529,311.631h-24.182c-0.698,0-1.263-0.565-1.263-1.263v-24.182c0-0.698,0.565-1.263,1.263-1.263h24.182
				c0.696,0,1.263,0.565,1.263,1.263v24.182C215.792,311.066,215.225,311.631,214.529,311.631z M191.609,309.105h21.657v-21.657
				h-21.657V309.105z"/>
		</g>
		<g>
			<path d="M253.099,311.631h-24.18c-0.695,0-1.263-0.565-1.263-1.263v-24.182c0-0.698,0.567-1.263,1.263-1.263h24.18
				c0.698,0,1.263,0.565,1.263,1.263v24.182C254.362,311.066,253.797,311.631,253.099,311.631z M230.182,309.105h21.654v-21.657
				h-21.654V309.105z"/>
		</g>
		<g>
			<path d="M291.674,311.631h-24.182c-0.698,0-1.263-0.565-1.263-1.263v-24.182c0-0.698,0.565-1.263,1.263-1.263h24.182
				c0.696,0,1.263,0.565,1.263,1.263v24.182C292.937,311.066,292.37,311.631,291.674,311.631z M268.754,309.105h21.657v-21.657
				h-21.657V309.105z"/>
		</g>
		<g>
			<path d="M314.1,351.355H129.343c-12.123,0-21.987-9.864-21.987-21.99v-172.72c0-12.123,9.864-21.987,21.987-21.987h21.541
				v-21.489c0-5.296,4.307-9.603,9.597-9.603c5.293,0,9.6,4.307,9.6,9.603v21.489h21.629v-21.489c0-5.296,4.304-9.603,9.598-9.603
				s9.6,4.307,9.6,9.603v21.489h21.627v-21.489c0-5.296,4.307-9.603,9.6-9.603c5.293,0,9.6,4.307,9.6,9.603v21.489h21.63v-21.489
				c0-5.296,4.307-9.603,9.597-9.603c5.293,0,9.6,4.307,9.6,9.603v21.489H314.1c12.126,0,21.992,9.864,21.992,21.987v172.72
				C336.092,341.492,326.226,351.355,314.1,351.355z M129.343,137.184c-10.729,0-19.461,8.729-19.461,19.461v172.72
				c0,10.732,8.732,19.464,19.461,19.464H314.1c10.735,0,19.466-8.731,19.466-19.464v-172.72c0-10.732-8.731-19.461-19.466-19.461
				h-22.801c-0.698,0-1.263-0.565-1.263-1.263v-22.752c0-3.902-3.174-7.077-7.074-7.077c-3.899,0-7.072,3.175-7.072,7.077v22.752
				c0,0.698-0.564,1.263-1.263,1.263h-24.155c-0.698,0-1.263-0.565-1.263-1.263v-22.752c0-3.902-3.174-7.077-7.074-7.077
				c-3.9,0-7.074,3.175-7.074,7.077v22.752c0,0.698-0.565,1.263-1.263,1.263h-24.153c-0.698,0-1.263-0.565-1.263-1.263v-22.752
				c0-3.902-3.172-7.077-7.074-7.077c-3.9,0-7.072,3.175-7.072,7.077v22.752c0,0.698-0.565,1.263-1.263,1.263h-24.155
				c-0.698,0-1.263-0.565-1.263-1.263v-22.752c0-3.902-3.172-7.077-7.074-7.077c-3.899,0-7.072,3.175-7.072,7.077v22.752
				c0,0.698-0.564,1.263-1.263,1.263H129.343z"/>
		</g>
	</g>
	<g>
		<path fill="#FFFFFF" d="M1286.814,128.699c0-9-7.297-16.299-16.3-16.299h-229.536c-9.003,0-16.299,7.299-16.299,16.299v17.656
			h262.135V128.699z"/>
		<path d="M1286.814,147.618H1024.68c-0.698,0-1.263-0.564-1.263-1.263v-17.656c0-9.684,7.878-17.562,17.562-17.562h229.536
			c9.684,0,17.563,7.878,17.563,17.562v17.656C1288.077,147.053,1287.512,147.618,1286.814,147.618z M1025.942,145.092h259.608
			v-16.393c0-8.29-6.743-15.037-15.036-15.037h-229.536c-8.292,0-15.036,6.747-15.036,15.037V145.092z"/>
	</g>
	<g>
		<path fill="#FFFFFF" d="M1024.68,260.447c0,8.998,7.296,16.296,16.299,16.296h229.536c9.003,0,16.3-7.298,16.3-16.296v-81.496
			H1024.68V260.447z"/>
		<path d="M1270.515,278.007h-229.536c-9.684,0-17.562-7.878-17.562-17.56v-81.496c0-0.698,0.564-1.263,1.263-1.263h262.135
			c0.697,0,1.263,0.565,1.263,1.263v81.496C1288.077,270.128,1280.198,278.007,1270.515,278.007z M1025.942,180.214v80.233
			c0,8.29,6.744,15.034,15.036,15.034h229.536c8.293,0,15.036-6.744,15.036-15.034v-80.233H1025.942z"/>
	</g>
	<g>
		<rect x="1024.68" y="146.355" fill="#FFFFFF" width="262.135" height="32.596"/>
		<path d="M1286.814,180.214H1024.68c-0.698,0-1.263-0.565-1.263-1.263v-32.596c0-0.698,0.564-1.263,1.263-1.263h262.135
			c0.697,0,1.263,0.564,1.263,1.263v32.596C1288.077,179.649,1287.512,180.214,1286.814,180.214z M1025.942,177.688h259.608v-30.07
			h-259.608V177.688z"/>
	</g>
	<g>
		<line fill="#FFFFFF" x1="1038.261" y1="204.759" x2="1098.021" y2="204.759"/>
		<path d="M1098.021,206.022h-59.761c-0.695,0-1.263-0.565-1.263-1.263c0-0.698,0.567-1.263,1.263-1.263h59.761
			c0.698,0,1.263,0.565,1.263,1.263C1099.284,205.457,1098.72,206.022,1098.021,206.022z"/>
	</g>
	<g>
		<g>
			<polygon fill="#FFFFFF" points="1257.274,258.903 1213.995,215.624 1231.281,198.336 1257.274,224.329 1342.347,139.254 
				1359.633,156.542 			"/>
			<path d="M1257.274,260.166c-0.336,0-0.656-0.133-0.894-0.37l-43.278-43.279c-0.493-0.493-0.493-1.292,0-1.786l17.286-17.289
				c0.473-0.474,1.312-0.474,1.785,0l25.101,25.1l84.18-84.182c0.474-0.474,1.312-0.474,1.785,0l17.286,17.288
				c0.493,0.494,0.493,1.292,0,1.786l-102.358,102.361C1257.93,260.033,1257.607,260.166,1257.274,260.166z M1215.781,215.624
				l41.493,41.493l100.572-100.575l-15.5-15.502l-84.18,84.182c-0.474,0.474-1.313,0.474-1.786,0l-25.1-25.1L1215.781,215.624z"/>
		</g>
	</g>
	<g>
		<g>
			<g>
				<g>
					<path fill="#FFFFFF" d="M1133.188,627.298l56.174-128.107l-11.336-25.692l-53.377,111.369
						C1109.123,617.416,1133.188,627.298,1133.188,627.298z"/>
					<path d="M1133.188,628.561c-0.16,0-0.323-0.029-0.481-0.094c-0.362-0.15-8.938-3.769-12.767-13.689
						c-3.251-8.429-2.05-18.675,3.569-30.452l53.377-111.372c0.214-0.447,0.683-0.693,1.159-0.718
						c0.493,0.007,0.938,0.301,1.137,0.752l11.337,25.692c0.141,0.326,0.143,0.693,0,1.019l-56.175,128.107
						C1134.137,628.277,1133.674,628.561,1133.188,628.561z M1177.979,476.52l-52.19,108.892
						c-5.296,11.105-6.478,20.666-3.508,28.416c2.644,6.896,7.977,10.47,10.283,11.745l55.419-126.38L1177.979,476.52z"/>
				</g>
			</g>
		</g>
		<g>
			<path fill="#FFFFFF" d="M1303.207,523.627c0-7.826-6.347-14.173-14.173-14.173h-199.608c-7.824,0-14.171,6.347-14.171,14.173
				v15.354h227.952V523.627z"/>
			<path d="M1303.207,540.244h-227.952c-0.698,0-1.263-0.564-1.263-1.263v-15.354c0-8.512,6.924-15.436,15.434-15.436h199.608
				c8.512,0,15.436,6.924,15.436,15.436v15.354C1304.47,539.68,1303.905,540.244,1303.207,540.244z M1076.518,537.719h225.427
				v-14.092c0-7.118-5.792-12.91-12.91-12.91h-199.608c-7.117,0-12.908,5.792-12.908,12.91V537.719z"/>
		</g>
		<g>
			<path fill="#FFFFFF" d="M1075.255,638.195c0,7.824,6.347,14.17,14.171,14.17h199.608c7.826,0,14.173-6.346,14.173-14.17v-70.868
				h-227.952V638.195z"/>
			<path d="M1289.034,653.629h-199.608c-8.51,0-15.434-6.924-15.434-15.434v-70.868c0-0.697,0.564-1.263,1.263-1.263h227.952
				c0.698,0,1.263,0.565,1.263,1.263v70.868C1304.47,646.705,1297.546,653.629,1289.034,653.629z M1076.518,568.591v69.604
				c0,7.116,5.791,12.907,12.908,12.907h199.608c7.118,0,12.91-5.791,12.91-12.907v-69.604H1076.518z"/>
		</g>
		<g>
			<rect x="1075.255" y="538.981" fill="#FFFFFF" width="227.952" height="28.346"/>
			<path d="M1303.207,568.591h-227.952c-0.698,0-1.263-0.565-1.263-1.264v-28.346c0-0.698,0.564-1.263,1.263-1.263h227.952
				c0.698,0,1.263,0.564,1.263,1.263v28.346C1304.47,568.025,1303.905,568.591,1303.207,568.591z M1076.518,566.064h225.427v-25.82
				h-225.427V566.064z"/>
		</g>
		<g>
			<line fill="#FFFFFF" x1="1087.067" y1="589.769" x2="1139.033" y2="589.769"/>
			<path d="M1139.033,591.031h-51.966c-0.698,0-1.263-0.564-1.263-1.263s0.564-1.263,1.263-1.263h51.966
				c0.698,0,1.263,0.564,1.263,1.263S1139.731,591.031,1139.033,591.031z"/>
		</g>
		<g>
			<g>
				<g>
					<path fill="#FFFFFF" d="M1218.541,432.684c4.358-10.518,10.897-18.033,15.241-22.254c3.796,1.554,7.962,2.42,12.309,2.413
						c17.979-0.02,32.536-14.61,32.515-32.571c-0.022-17.972-14.617-32.524-32.589-32.502c-17.954,0.022-32.512,14.61-32.49,32.574
						c0.013,7.496,2.578,14.371,6.83,19.869c-7.409,18.418-25.164,37.443-25.164,37.443l-5.89,12.303l11.341,23.514
						L1218.541,432.684z M1246.036,364.034c8.986-0.007,16.287,7.267,16.294,16.252c0.008,8.983-7.266,16.282-16.252,16.29
						c-8.983,0.015-16.279-7.267-16.284-16.248C1229.781,371.337,1237.058,364.046,1246.036,364.034z"/>
					<path d="M1200.644,474.734c-0.483,0-0.927-0.276-1.137-0.715l-11.342-23.514c-0.168-0.345-0.168-0.747-0.002-1.093l5.89-12.303
						c0.057-0.116,0.129-0.222,0.217-0.315c0.173-0.188,17.257-18.613,24.646-36.395c-4.344-5.861-6.64-12.78-6.652-20.054
						c-0.022-18.637,15.118-33.817,33.75-33.839c18.665,0,33.832,15.147,33.854,33.763c0.01,9.025-3.498,17.518-9.876,23.909
						c-6.379,6.393-14.869,9.918-23.901,9.928c-4.159,0-8.18-0.74-12.008-2.198c-4.457,4.438-10.364,11.583-14.375,21.26
						l-17.907,40.812c-0.197,0.451-0.642,0.745-1.135,0.755C1200.658,474.734,1200.651,474.734,1200.644,474.734z M1190.703,449.955
						l9.887,20.497l16.795-38.276c4.341-10.476,10.835-18.103,15.517-22.651c0.363-0.35,0.896-0.454,1.359-0.264
						c3.759,1.539,7.721,2.318,11.775,2.318c8.411-0.01,16.265-3.271,22.167-9.186c5.903-5.915,9.148-13.771,9.139-22.12
						c-0.021-17.227-14.055-31.242-31.283-31.242c-17.281,0.022-31.291,14.067-31.27,31.308c0.013,6.956,2.282,13.559,6.566,19.099
						c0.273,0.355,0.341,0.826,0.173,1.243c-7.158,17.791-23.507,35.77-25.28,37.689L1190.703,449.955z M1246.081,397.838
						c-9.685,0-17.545-7.854-17.55-17.51c-0.013-9.667,7.839-17.545,17.503-17.557c0.002,0,0.015,0,0.017,0
						c9.664,0,17.535,7.856,17.543,17.515c0.005,4.682-1.815,9.087-5.123,12.402
						C1255.163,396.006,1250.763,397.833,1246.081,397.838z M1246.051,364.034l-0.015,1.263
						c-8.271,0.012-14.991,6.753-14.979,15.029c0.005,8.266,6.731,14.987,14.994,14.987c4.033-0.002,7.8-1.569,10.631-4.408
						c2.832-2.839,4.389-6.608,4.386-10.619c-0.007-8.266-6.743-14.989-15.017-14.989V364.034z"/>
				</g>
			</g>
		</g>
		<g>
			<path fill="#FFFFFF" d="M1132.423,412.976c4.371-0.005,8.532-0.878,12.328-2.439c4.36,4.21,10.902,11.711,15.283,22.216
				l17.991,40.746l11.336,25.692l6.62,14.994l30.712,69.565l19.163,43.42c0,0,24.026-9.948,8.44-42.458l-0.991-2.057l-33.129-68.692
				l-19.533-40.492l-11.341-23.514l-5.923-12.289c0,0-17.767-18.98-25.23-37.389c4.245-5.5,6.795-12.39,6.783-19.875
				c-0.027-17.967-14.603-32.524-32.584-32.502c-17.964,0.022-32.512,14.609-32.489,32.576
				C1099.884,398.445,1114.461,412.996,1132.423,412.976z M1189.815,469.253c3.392-0.005,6.146,2.746,6.146,6.127
				c0.003,3.382-2.743,6.132-6.137,6.132c-3.379,0.002-6.122-2.736-6.127-6.117C1183.698,472.019,1186.429,469.261,1189.815,469.253
				z M1132.368,364.165c8.983-0.005,16.28,7.271,16.292,16.257c0.01,8.979-7.264,16.282-16.255,16.287
				c-8.971,0.01-16.271-7.271-16.282-16.25C1116.113,371.473,1123.391,364.179,1132.368,364.165z"/>
			<path d="M1245.856,628.433c-0.486,0-0.947-0.281-1.157-0.753l-85.822-194.416c-4.05-9.718-9.968-16.839-14.422-21.25
				c-3.846,1.473-7.889,2.22-12.029,2.225c-18.646-0.002-33.805-15.145-33.83-33.758c-0.021-18.637,15.118-33.819,33.751-33.841
				c18.657,0,33.821,15.145,33.849,33.763c0.013,7.276-2.27,14.197-6.604,20.063c7.444,17.782,24.535,36.155,24.711,36.34
				c0.086,0.094,0.16,0.2,0.215,0.315l70.916,147.043c5.644,11.766,6.865,22.01,3.634,30.448
				c-3.801,9.933-12.365,13.573-12.728,13.724C1246.182,628.402,1246.017,628.433,1245.856,628.433z M1144.751,409.273
				c0.32,0,0.636,0.124,0.878,0.355c4.682,4.519,11.184,12.116,15.571,22.638l85.275,193.175c2.304-1.282,7.622-4.871,10.248-11.775
				c2.953-7.757,1.754-17.315-3.566-28.41l-70.833-146.868c-1.771-1.914-18.135-19.851-25.347-37.635
				c-0.168-0.415-0.104-0.891,0.173-1.246c4.277-5.542,6.531-12.148,6.52-19.101c-0.027-17.227-14.058-31.242-31.279-31.242
				c-17.281,0.022-31.291,14.067-31.269,31.311c0.022,17.222,14.05,31.234,31.264,31.237c4.127-0.005,8.112-0.794,11.884-2.346
				C1144.425,409.306,1144.588,409.273,1144.751,409.273z M1189.825,482.775c-4.067,0-7.383-3.31-7.39-7.377
				c0-4.078,3.31-7.397,7.377-7.407c0,0,0.01,0,0.013,0c4.08,0,7.399,3.315,7.399,7.39c0.003,1.974-0.767,3.831-2.163,5.227
				C1193.663,482.006,1191.804,482.775,1189.825,482.775z M1189.825,469.253l-0.007,1.263c-2.68,0.005-4.857,2.195-4.857,4.879
				c0.003,2.676,2.184,4.854,4.859,4.854c1.305,0,2.533-0.508,3.453-1.428s1.428-2.141,1.426-3.441c0-2.681-2.188-4.864-4.874-4.864
				V469.253z M1132.405,397.972c-9.671,0-17.534-7.856-17.545-17.51c-0.01-9.667,7.842-17.545,17.506-17.56c0,0,0.01,0,0.013,0
				c9.661,0,17.532,7.858,17.544,17.518c0.005,4.682-1.813,9.087-5.12,12.402C1141.492,396.142,1137.092,397.969,1132.405,397.972z
				 M1132.379,364.165l-0.011,1.263c-8.271,0.015-14.991,6.756-14.981,15.029c0.01,8.265,6.738,14.989,14.999,14.989
				c4.028-0.002,7.794-1.566,10.629-4.408c2.831-2.839,4.388-6.608,4.383-10.614c-0.01-8.271-6.749-14.997-15.019-14.997V364.165z"
				/>
		</g>
	</g>
	<g>
		<g>
			<path fill="#FFFFFF" d="M384.21,728.447c0-8.85-7.175-16.022-16.023-16.022H142.51c-8.848,0-16.023,7.173-16.023,16.022v17.36
				H384.21V728.447z"/>
			<path d="M384.21,747.07H126.487c-0.698,0-1.263-0.564-1.263-1.263v-17.36c0-9.53,7.755-17.285,17.286-17.285h225.678
				c9.531,0,17.286,7.755,17.286,17.285v17.36C385.474,746.506,384.909,747.07,384.21,747.07z M127.75,744.545h255.198v-16.098
				c0-8.14-6.623-14.76-14.76-14.76H142.51c-8.14,0-14.76,6.62-14.76,14.76V744.545z"/>
		</g>
		<g>
			<path fill="#FFFFFF" d="M126.487,857.978c0,8.846,7.175,16.023,16.023,16.023h225.678c8.848,0,16.023-7.178,16.023-16.023
				v-80.122H126.487V857.978z"/>
			<path d="M368.188,875.264H142.51c-9.531,0-17.286-7.755-17.286-17.286v-80.122c0-0.697,0.565-1.263,1.263-1.263H384.21
				c0.698,0,1.263,0.565,1.263,1.263v80.122C385.474,867.509,377.718,875.264,368.188,875.264z M127.75,779.119v78.858
				c0,8.14,6.62,14.761,14.76,14.761h225.678c8.137,0,14.76-6.621,14.76-14.761v-78.858H127.75z"/>
		</g>
		<g>
			<rect x="126.487" y="745.808" fill="#FFFFFF" width="257.724" height="32.048"/>
			<path d="M384.21,779.119H126.487c-0.698,0-1.263-0.565-1.263-1.264v-32.048c0-0.698,0.565-1.263,1.263-1.263H384.21
				c0.698,0,1.263,0.564,1.263,1.263v32.048C385.474,778.554,384.909,779.119,384.21,779.119z M127.75,776.593h255.198V747.07
				H127.75V776.593z"/>
		</g>
		<g>
			<line fill="#FFFFFF" x1="139.841" y1="803.227" x2="198.595" y2="803.227"/>
			<path d="M198.595,804.49h-58.754c-0.696,0-1.263-0.565-1.263-1.264c0-0.697,0.567-1.263,1.263-1.263h58.754
				c0.698,0,1.263,0.565,1.263,1.263C199.858,803.925,199.293,804.49,198.595,804.49z"/>
		</g>
		<g>
			<g>
				<path fill="#FFFFFF" d="M78.526,613.675c0-5.178,4.198-9.376,9.378-9.381h0.779c5.175,0,9.373,4.203,9.373,9.381v21.06h-19.53
					V613.675z"/>
				<path d="M98.057,635.997h-19.53c-0.698,0-1.263-0.564-1.263-1.263v-21.06c0.002-5.863,4.775-10.639,10.639-10.644h0.782
					c5.863,0,10.636,4.775,10.636,10.644v21.06C99.32,635.433,98.752,635.997,98.057,635.997z M79.789,633.472h17.005v-19.797
					c0-4.477-3.638-8.117-8.11-8.117h-0.779c-4.475,0.005-8.115,3.646-8.115,8.117V633.472z"/>
			</g>
			<g>
				<polygon fill="#FFFFFF" points="73.633,773.704 102.953,773.699 102.953,794.222 73.63,794.222 				"/>
				<path d="M102.953,795.484H73.63c-0.335,0-0.656-0.133-0.893-0.37c-0.237-0.236-0.37-0.558-0.37-0.893l0.002-20.518
					c0-0.697,0.565-1.263,1.263-1.263l29.32-0.005c0.335,0,0.656,0.134,0.893,0.37s0.37,0.558,0.37,0.893v20.522
					C104.216,794.92,103.651,795.484,102.953,795.484z M74.893,792.959h26.797v-17.996l-26.794,0.005L74.893,792.959z"/>
			</g>
			<g>
				<polygon fill="#FFFFFF" points="73.633,634.732 82.877,634.732 93.71,634.734 102.956,634.734 102.953,773.699 73.633,773.704 
									"/>
				<path d="M73.633,774.968c-0.335,0-0.656-0.134-0.893-0.37c-0.237-0.237-0.37-0.558-0.37-0.894V634.732
					c0-0.698,0.565-1.264,1.263-1.264l29.323,0.003c0.335,0,0.656,0.133,0.893,0.37c0.237,0.236,0.37,0.558,0.37,0.893
					l-0.002,138.965c0,0.698-0.565,1.264-1.263,1.264L73.633,774.968z M74.896,635.995v136.446l26.794-0.005l0.002-136.439
					L74.896,635.995z"/>
			</g>
			<g>
				<polygon fill="#FFFFFF" points="102.953,856.688 73.633,856.69 73.63,834.188 102.956,834.19 				"/>
				<path d="M73.633,857.953c-0.698,0-1.263-0.564-1.263-1.263l-0.002-22.503c0-0.335,0.133-0.656,0.37-0.893
					c0.237-0.237,0.557-0.37,0.893-0.37l0,0l29.326,0.003c0.335,0,0.656,0.133,0.893,0.369c0.237,0.237,0.37,0.558,0.37,0.894
					l-0.002,22.497c0,0.698-0.565,1.264-1.263,1.264L73.633,857.953z M74.893,835.45l0.002,19.978l26.794-0.003l0.002-19.972
					L74.893,835.45z"/>
			</g>
			<g>
				<rect x="73.63" y="794.222" fill="#FFFFFF" width="29.323" height="19.444"/>
				<path d="M102.953,814.929H73.63c-0.698,0-1.263-0.565-1.263-1.263v-19.444c0-0.698,0.565-1.263,1.263-1.263h29.323
					c0.698,0,1.263,0.564,1.263,1.263v19.444C104.216,814.363,103.651,814.929,102.953,814.929z M74.893,812.402h26.797v-16.918
					H74.893V812.402z"/>
			</g>
			<g>
				<rect x="73.63" y="813.667" fill="#FFFFFF" width="29.326" height="20.521"/>
				<path d="M103.005,835.453c-0.018,0.002-0.032,0.002-0.049,0l0,0L73.63,835.45c-0.698,0-1.263-0.564-1.263-1.263v-20.521
					c0-0.698,0.565-1.264,1.263-1.264h29.323c0.698,0,1.263,0.565,1.263,1.264l0.002,20.169c0.032,0.113,0.049,0.231,0.049,0.355
					C104.268,834.889,103.703,835.453,103.005,835.453z M74.893,832.925l26.799,0.003l-0.002-17.999H74.893V832.925z"/>
			</g>
			<g>
				<path d="M126.487,691.678c-0.419,0-0.829-0.209-1.071-0.592l-5.883-9.37c-0.125-0.2-0.195-0.435-0.195-0.671v-45.06
					l-16.383,0.005c-0.698,0-1.263-0.565-1.263-1.264c0-0.697,0.563-1.263,1.261-1.263l17.648-0.005c0.335,0,0.656,0.134,0.893,0.37
					c0.237,0.237,0.37,0.558,0.37,0.893v45.96l5.693,9.063c0.37,0.59,0.192,1.369-0.399,1.741
					C126.95,691.616,126.718,691.678,126.487,691.678z"/>
			</g>
			<g>
				<polygon fill="#FFFFFF" points="102.953,856.688 93.538,876.356 93.079,877.321 83.506,877.321 73.633,856.69 				"/>
				<path d="M93.079,878.584h-9.573c-0.486,0-0.93-0.279-1.14-0.718l-9.874-20.631c-0.188-0.392-0.161-0.851,0.071-1.219
					c0.229-0.367,0.634-0.589,1.068-0.589l29.32-0.003c0.434,0,0.836,0.222,1.068,0.59c0.232,0.367,0.259,0.826,0.071,1.219
					l-9.874,20.633C94.007,878.305,93.565,878.584,93.079,878.584z M84.303,876.058h7.979l8.666-18.106l-25.31,0.002L84.303,876.058
					z"/>
			</g>
			<g>
				<path fill="#FFFFFF" d="M91.338,877.321v6.95c0,1.683-1.362,3.049-3.044,3.049c-1.682-0.005-3.049-1.366-3.049-3.049v-6.95
					H91.338z"/>
				<path d="M88.294,888.583c-0.002,0-0.005,0-0.005,0c-2.373-0.007-4.307-1.94-4.307-4.312v-6.95c0-0.698,0.567-1.264,1.263-1.264
					h6.093c0.335,0,0.656,0.134,0.893,0.37c0.237,0.237,0.37,0.558,0.37,0.894v6.95c0,1.149-0.446,2.232-1.26,3.049
					C90.526,888.135,89.443,888.583,88.294,888.583z M86.508,878.584v5.688c0,0.982,0.801,1.783,1.786,1.786
					c0.476,0,0.922-0.185,1.258-0.523c0.338-0.335,0.523-0.784,0.523-1.26v-5.69H86.508z"/>
			</g>
		</g>
	</g>
	<g>
		<g>
			<path d="M250.736,652.354h-33.715c-0.698,0-1.263-0.565-1.263-1.263v-24.01c0-0.698,0.565-1.264,1.263-1.264h33.715
				c0.698,0,1.263,0.565,1.263,1.264v24.01C251.999,651.788,251.434,652.354,250.736,652.354z M218.283,649.827h31.19v-21.483
				h-31.19V649.827z"/>
		</g>
		<g>
			<path d="M299.777,652.354H167.979c-0.698,0-1.263-0.565-1.263-1.263v-77.239c0-0.698,0.565-1.263,1.263-1.263h131.797
				c0.698,0,1.263,0.564,1.263,1.263v77.239C301.04,651.788,300.475,652.354,299.777,652.354z M169.243,649.827h129.271v-74.713
				H169.243V649.827z"/>
		</g>
		<g>
			<path d="M328.384,575.114H139.372c-0.474,0-0.905-0.264-1.122-0.683c-0.217-0.422-0.18-0.928,0.094-1.313l28.607-40.158
				c0.237-0.333,0.619-0.53,1.028-0.53h131.797c0.407,0,0.792,0.197,1.028,0.53l28.607,40.158c0.274,0.385,0.311,0.891,0.094,1.313
				C329.29,574.851,328.858,575.114,328.384,575.114z M141.821,572.589h184.114l-26.81-37.633H168.631L141.821,572.589z"/>
		</g>
	</g>
	<g>
		<g>
			<path d="M402.717,250.502c-0.668,0-1.226-0.525-1.26-1.199l-0.086-1.702c-0.02-0.375-0.054-0.701-0.101-1.006
				c-0.38-2.402-1.677-4.517-3.65-5.944c-1.951-1.411-4.349-1.996-6.751-1.606c-2.38,0.373-4.479,1.653-5.912,3.606l-1.017,1.379
				c-0.404,0.55-1.171,0.681-1.734,0.289l-1.406-0.972c-2.997-2.064-5.718-4.541-8.083-7.363l-1.105-1.317
				c-0.439-0.522-0.382-1.302,0.128-1.756l1.288-1.142c2.307-2.018,3.443-5.165,2.975-8.219c-0.708-4.428-4.472-7.646-8.949-7.646
				l-2.158,0.091c-0.678,0.04-1.27-0.486-1.319-1.169l-0.124-1.714c-0.18-2.504-0.128-5.042,0.153-7.543
				c0.136-1.231,0.323-2.427,0.558-3.554l0.343-1.688c0.136-0.673,0.79-1.095,1.463-0.991l1.702,0.311
				c1.066,0.195,2.102,0.212,3.103,0.054c4.036-0.634,7.166-3.904,7.619-7.955c0.091-0.807,0.069-1.63-0.062-2.447
				c-0.274-1.719-1.026-3.308-2.178-4.595l-1.154-1.292c-0.457-0.516-0.419-1.3,0.086-1.766l1.266-1.174
				c2.73-2.518,5.796-4.647,9.116-6.334l1.527-0.774c0.612-0.309,1.357-0.074,1.682,0.528l0.817,1.512
				c1.808,3.362,5.567,5.298,9.415,4.669c3.804-0.602,6.823-3.559,7.519-7.36l0.308-1.685c0.121-0.673,0.755-1.132,1.433-1.021
				l1.692,0.259c3.641,0.565,7.175,1.625,10.508,3.15l1.579,0.728c0.626,0.286,0.908,1.023,0.629,1.655l-0.695,1.583
				c-0.713,1.605-0.945,3.372-0.673,5.108c0.38,2.395,1.672,4.501,3.636,5.929c1.966,1.426,4.366,2.016,6.778,1.618
				c1.041-0.163,2.052-0.518,3.009-1.051l1.527-0.841c0.604-0.34,1.364-0.119,1.707,0.476l0.861,1.502
				c1.853,3.234,3.241,6.729,4.126,10.394l0.402,1.66c0.16,0.664-0.237,1.334-0.898,1.515l-1.643,0.446
				c-3.532,0.979-6.186,4.09-6.595,7.735c-0.091,0.812-0.072,1.635,0.059,2.447c0.486,3.073,2.491,5.653,5.362,6.909l1.559,0.674
				c0.627,0.271,0.923,0.991,0.671,1.625l-0.629,1.583c-1.344,3.379-3.165,6.581-5.417,9.516l-1.034,1.361
				c-0.414,0.542-1.188,0.656-1.746,0.259l-1.386-1.004c-1.946-1.403-4.329-1.971-6.729-1.591c-4.03,0.642-7.158,3.907-7.614,7.945
				c-0.089,0.814-0.069,1.638,0.059,2.447c0.047,0.323,0.111,0.609,0.215,0.979l0.469,1.66c0.188,0.666-0.195,1.359-0.858,1.554
				l-1.66,0.491c-1.791,0.533-3.606,0.952-5.39,1.246c-1.825,0.296-3.655,0.457-5.599,0.491l-1.702,0.037
				C402.737,250.502,402.727,250.502,402.717,250.502z M392.321,236.403c2.442,0,4.785,0.76,6.778,2.2
				c2.521,1.828,4.179,4.526,4.667,7.602c0.059,0.39,0.104,0.799,0.126,1.27l0.024,0.474l0.481-0.01
				c1.825-0.032,3.54-0.18,5.242-0.457c1.677-0.276,3.387-0.673,5.079-1.176l0.466-0.138l-0.131-0.464
				c-0.138-0.493-0.222-0.878-0.279-1.28c-0.163-1.016-0.188-2.067-0.071-3.108c0.58-5.162,4.578-9.341,9.723-10.16
				c3.068-0.486,6.12,0.244,8.606,2.04l0.392,0.281l0.291-0.382c2.111-2.755,3.818-5.755,5.074-8.917l0.178-0.446l-0.437-0.188
				c-3.67-1.604-6.23-4.904-6.85-8.828c-0.166-1.033-0.192-2.084-0.077-3.125c0.525-4.662,3.917-8.636,8.438-9.889l0.466-0.128
				l-0.113-0.466c-0.832-3.431-2.131-6.704-3.865-9.729l-0.242-0.424l-0.434,0.236c-1.214,0.679-2.506,1.127-3.84,1.337
				c-3.054,0.486-6.147-0.249-8.658-2.067c-2.511-1.825-4.159-4.519-4.647-7.582c-0.345-2.218-0.049-4.472,0.858-6.52l0.195-0.444
				l-0.449-0.207c-3.12-1.428-6.43-2.42-9.839-2.95l-0.476-0.074l-0.086,0.479c-0.888,4.854-4.751,8.633-9.61,9.402
				c-4.916,0.792-9.721-1.67-12.035-5.967l-0.229-0.427l-0.429,0.217c-3.113,1.579-5.986,3.577-8.544,5.932l-0.355,0.331
				l0.328,0.368c1.473,1.647,2.437,3.68,2.787,5.878c0.168,1.041,0.195,2.094,0.079,3.127c-0.582,5.177-4.583,9.358-9.73,10.167
				c-1.271,0.205-2.61,0.183-3.957-0.062l-0.483-0.089l-0.096,0.479c-0.227,1.093-0.397,2.215-0.521,3.325
				c-0.267,2.351-0.313,4.733-0.143,7.082l0.035,0.486l0.486-0.022c5.957-0.343,11.067,3.914,12.002,9.765
				c0.602,3.907-0.854,7.93-3.799,10.505l-0.362,0.323l0.315,0.375c2.22,2.646,4.773,4.97,7.583,6.906l0.399,0.276l0.289-0.39
				c1.828-2.491,4.511-4.129,7.553-4.605C391.087,236.45,391.707,236.403,392.321,236.403z"/>
		</g>
		<g>
			<path d="M403.238,232.331c-0.829,0-1.665-0.047-2.506-0.141c-12.232-1.376-21.065-12.441-19.696-24.668
				c1.364-12.138,12.271-21.087,24.668-19.698c5.924,0.664,11.238,3.596,14.957,8.258c3.72,4.659,5.402,10.49,4.736,16.415
				C424.13,223.803,414.604,232.331,403.238,232.331z M403.186,190.208c-10.071,0-18.512,7.563-19.639,17.594
				c-1.216,10.843,6.618,20.658,17.466,21.876c10.999,1.248,20.67-6.704,21.876-17.463c0.589-5.254-0.903-10.426-4.201-14.56
				c-3.3-4.134-8.012-6.734-13.265-7.321C404.671,190.25,403.923,190.208,403.186,190.208z"/>
		</g>
	</g>
	<g>
		<g>
			<path d="M466.309,888.66c-23.835,0-43.225-19.393-43.225-43.228c0-23.829,19.39-43.217,43.225-43.217
				c23.832,0,43.224,19.388,43.224,43.217C509.533,869.268,490.141,888.66,466.309,888.66z M466.309,804.741
				c-22.441,0-40.699,18.256-40.699,40.691c0,22.443,18.257,40.701,40.699,40.701c22.441,0,40.699-18.258,40.699-40.701
				C507.007,822.997,488.75,804.741,466.309,804.741z"/>
		</g>
		<g>
			<path d="M460.537,867.491c-0.335,0-0.656-0.133-0.893-0.37l-19.55-19.555c-0.494-0.493-0.494-1.293,0-1.786
				c0.493-0.493,1.292-0.493,1.786,0l18.657,18.662l32.749-32.751c0.493-0.493,1.292-0.493,1.786,0s0.493,1.293,0,1.786
				l-33.642,33.644C461.193,867.358,460.872,867.491,460.537,867.491z"/>
		</g>
	</g>
	<g>
		<g>
			<path d="M1209.067,889H991.727c-0.696,0-1.264-0.564-1.264-1.263v-145.8c0-0.698,0.567-1.263,1.264-1.263h108.673
				c0.695,0,1.263,0.564,1.263,1.263v12.188c0,0.697-0.567,1.263-1.263,1.263h-95.221v118.896h190.44v-79.029
				c0-0.698,0.564-1.263,1.263-1.263h12.186c0.698,0,1.263,0.564,1.263,1.263v92.482C1210.33,888.436,1209.766,889,1209.067,889z
				 M992.989,886.475h214.815v-89.957h-9.66v79.03c0,0.697-0.564,1.263-1.263,1.263h-192.966c-0.695,0-1.263-0.565-1.263-1.263
				V754.125c0-0.698,0.567-1.264,1.263-1.264h95.221V743.2H992.989V886.475z"/>
		</g>
		<g>
			<path d="M1196.882,876.811h-192.966c-0.695,0-1.263-0.565-1.263-1.263V754.125c0-0.698,0.567-1.264,1.263-1.264h96.483
				c0.695,0,1.263,0.565,1.263,1.264v65.154l36.944-25.07c0.21-0.141,0.459-0.217,0.71-0.217h57.565
				c0.698,0,1.263,0.564,1.263,1.263v80.293C1198.145,876.245,1197.58,876.811,1196.882,876.811z M1005.179,874.284h190.44v-77.767
				h-55.915l-38.597,26.19c-0.388,0.259-0.889,0.289-1.301,0.069c-0.414-0.217-0.67-0.646-0.67-1.115v-66.274h-93.958V874.284z"/>
		</g>
		<g>
			<path d="M1225.722,904.115H975.074c-8.697,0-15.773-7.076-15.773-15.776v-0.602c0-0.698,0.564-1.263,1.263-1.263h109.198
				c0.698,0,1.263,0.564,1.263,1.263v4.829h58.749v-4.829c0-0.698,0.565-1.263,1.264-1.263h109.193c0.697,0,1.263,0.564,1.263,1.263
				v0.602C1241.493,897.039,1234.419,904.115,1225.722,904.115z M961.841,889c0.348,7,6.149,12.59,13.233,12.59h250.647
				c7.081,0,12.886-5.59,13.23-12.59H1132.3v4.83c0,0.697-0.565,1.263-1.263,1.263h-61.275c-0.698,0-1.263-0.565-1.263-1.263V889
				H961.841z"/>
		</g>
		<g>
			<path d="M1131.037,895.093h-61.275c-0.698,0-1.263-0.565-1.263-1.263v-6.093c0-0.698,0.564-1.263,1.263-1.263h61.275
				c0.697,0,1.263,0.564,1.263,1.263v6.093C1132.3,894.527,1131.734,895.093,1131.037,895.093z M1071.024,892.566h58.749V889
				h-58.749V892.566z"/>
		</g>
		<g>
			<path d="M1100.399,796.518c-0.208,0-0.412-0.049-0.6-0.15c-0.409-0.219-0.663-0.646-0.663-1.112v-90.218
				c0-0.466,0.254-0.893,0.663-1.112c0.412-0.225,0.907-0.197,1.295,0.06l68.061,45.104c0.353,0.234,0.564,0.629,0.564,1.054
				c0,0.421-0.212,0.818-0.564,1.053l-68.061,45.114C1100.885,796.446,1100.641,796.518,1100.399,796.518z M1101.662,707.391v85.512
				l64.511-42.759L1101.662,707.391z"/>
		</g>
		<g>
			<path d="M1265.537,796.518c-0.244,0-0.488-0.071-0.698-0.209l-68.065-45.114c-0.353-0.234-0.564-0.629-0.564-1.053
				c0-0.425,0.212-0.819,0.564-1.054l68.065-45.104c0.388-0.255,0.884-0.281,1.295-0.06c0.409,0.22,0.666,0.646,0.666,1.112v90.218
				c0,0.467-0.257,0.894-0.666,1.112C1265.946,796.469,1265.739,796.518,1265.537,796.518z M1199.758,750.142l64.517,42.761v-85.512
				L1199.758,750.142z"/>
		</g>
		<g>
			<path d="M1182.966,761.028c-0.244,0-0.488-0.068-0.7-0.209l-82.564-54.729c-0.467-0.308-0.674-0.883-0.514-1.418
				c0.161-0.532,0.654-0.897,1.212-0.897h165.138c0.558,0,1.046,0.365,1.209,0.897c0.16,0.535-0.05,1.11-0.514,1.418l-82.571,54.729
				C1183.451,760.96,1183.207,761.028,1182.966,761.028z M1104.59,706.3l78.376,51.951l78.378-51.951H1104.59z"/>
		</g>
		<g>
			<path d="M1100.399,822.925c-0.205,0-0.407-0.049-0.593-0.147c-0.414-0.217-0.67-0.646-0.67-1.115v-26.407
				c0-0.424,0.212-0.818,0.564-1.053l68.058-45.114c0.422-0.281,0.975-0.281,1.396,0l13.811,9.163l13.808-9.163
				c0.422-0.276,0.972-0.281,1.396,0l68.063,45.114c0.467,0.308,0.674,0.883,0.514,1.418c-0.163,0.533-0.654,0.897-1.209,0.897
				h-125.833l-38.597,26.19C1100.893,822.852,1100.646,822.925,1100.399,822.925z M1101.662,795.934v23.346l36.944-25.07
				c0.21-0.141,0.459-0.217,0.71-0.217h122.027l-63.872-42.337l-13.811,9.164c-0.422,0.281-0.972,0.281-1.396,0l-13.809-9.161
				L1101.662,795.934z"/>
		</g>
	</g>
	<g>
		<path d="M934.541,822.925c-7.708,0-13.98-6.272-13.98-13.98s6.272-13.98,13.98-13.98s13.98,6.272,13.98,13.98
			S942.249,822.925,934.541,822.925z M934.541,797.49c-6.317,0-11.455,5.138-11.455,11.454c0,6.317,5.138,11.455,11.455,11.455
			c6.316,0,11.455-5.138,11.455-11.455C945.996,802.628,940.857,797.49,934.541,797.49z"/>
	</g>
	<g>
		<path d="M937.066,850.67h-35.992c-0.698,0-1.263-0.565-1.263-1.264c0-0.697,0.564-1.263,1.263-1.263h35.992
			c0.698,0,1.263,0.565,1.263,1.263C938.329,850.104,937.765,850.67,937.066,850.67z"/>
	</g>
	<g>
		<path d="M897.917,822.925h-32.204c-0.698,0-1.263-0.564-1.263-1.263s0.564-1.263,1.263-1.263h32.204
			c0.698,0,1.263,0.564,1.263,1.263S898.615,822.925,897.917,822.925z"/>
	</g>
	<g>
		<path d="M449.59,779.119h-31.572c-0.698,0-1.263-0.565-1.263-1.264c0-0.697,0.564-1.263,1.263-1.263h31.572
			c0.698,0,1.263,0.565,1.263,1.263C450.853,778.554,450.288,779.119,449.59,779.119z"/>
	</g>
	<g>
		<path d="M440.986,747.07h-30.965c-0.698,0-1.263-0.564-1.263-1.263s0.565-1.263,1.263-1.263h30.965
			c0.698,0,1.263,0.564,1.263,1.263S441.685,747.07,440.986,747.07z"/>
	</g>
	<g>
		<g>
			<path d="M960.211,201.192c-0.323,0-0.646-0.124-0.894-0.37l-20.978-20.979c-0.494-0.493-0.494-1.292,0-1.786
				c0.493-0.493,1.292-0.493,1.785,0l20.979,20.978c0.493,0.494,0.493,1.293,0,1.786
				C960.856,201.069,960.533,201.192,960.211,201.192z"/>
		</g>
		<g>
			<path d="M939.232,201.192c-0.323,0-0.646-0.124-0.893-0.37c-0.494-0.493-0.494-1.292,0-1.786l20.978-20.978
				c0.493-0.493,1.293-0.493,1.786,0s0.493,1.292,0,1.786l-20.979,20.979C939.879,201.069,939.556,201.192,939.232,201.192z"/>
		</g>
	</g>
	<g>
		<path d="M989.477,221.699H949.72c-0.695,0-1.263-0.564-1.263-1.263s0.567-1.263,1.263-1.263h39.757
			c0.698,0,1.263,0.564,1.263,1.263S990.175,221.699,989.477,221.699z"/>
	</g>
	<g>
		<path d="M949.72,152.674h-48.253c-0.698,0-1.264-0.565-1.264-1.263c0-0.698,0.565-1.263,1.264-1.263h48.253
			c0.698,0,1.264,0.565,1.264,1.263C950.983,152.109,950.418,152.674,949.72,152.674z"/>
	</g>
</g>
</svg>
